<?xml version="1.0" encoding="utf-8"?>
<!-- Designed by Vexels.com - 2016 All Rights Reserved - https://vexels.com/terms-and-conditions/  -->

<svg version="1.1" id="Layer_1" xmlns="http://www.w3.org/2000/svg" xmlns:xlink="http://www.w3.org/1999/xlink" x="0px" y="0px"
	 width="1200px" height="1200px" viewBox="0 0 1200 1200" enable-background="new 0 0 1200 1200" xml:space="preserve">
<g>
	<path fill-rule="evenodd" clip-rule="evenodd" fill="#B2B3B6" d="M381.817,607.409l113.984,48.858
		c0,138.538-87.413,106.594-4.951,289.195c17.23,38.159-55.095,41.448-66.49,4.562c-18.669-60.485,18.984-79.873-40.195-191.103
		c-21.829-41.068-19.092-104.476-2.739-148.563L381.817,607.409z"/>
	<path fill-rule="evenodd" clip-rule="evenodd" fill="#B2B3B6" d="M740.081,691.383l112.843-36.119
		c0,88.288-59.456,131.977-0.712,274.504c23.55,57.056-66.235,71.359-66.235-58.726
		C785.977,766.408,740.081,729.394,740.081,691.383z"/>
	<path fill-rule="evenodd" clip-rule="evenodd" fill="#EDEDEE" d="M810.242,270.137c-82.114,44.222-4.912,127.297-111.181,82.781
		c-159.231-66.706-352.796-29.525-418.758,46.176c-65.543,75.224-74.825,161.095-34.134,254.781
		c7.324,16.862,87.811,78.049,119.505,102.76c103.028,80.309,306.524,39.825,393.671-5.31
		c36.909-19.113,151.783-131.937,139.959-168.513C864.994,476.662,773.869,364.465,810.242,270.137z"/>
	<path fill-rule="evenodd" clip-rule="evenodd" fill="#EDEDEE" d="M277.417,632.876l113.999,48.839
		c0,138.54-87.417,106.609-4.936,289.206c17.215,38.154-55.11,41.444-66.495,4.557c-18.682-60.451,18.976-79.865-40.194-191.094
		c-21.848-41.072-19.096-104.516-2.744-148.575L277.417,632.876z"/>
	<path fill-rule="evenodd" clip-rule="evenodd" fill="#4D3633" d="M376.391,977.258c25.043-3.581,48.701,43.583,26.305,43.583
		c-36.616,0-8.447-15.858-22.654,1.928c-0.459,0.562-51.349,13.757-45.61-28.025C338.961,961.861,349.161,981.097,376.391,977.258z"
		/>
	<path fill-rule="evenodd" clip-rule="evenodd" fill="#4D3633" d="M846.031,947.842c25.045-3.56,48.694,43.608,26.319,43.608
		c-36.648,0-8.447-15.824-22.654,1.902c-0.465,0.562-51.356,13.748-45.604-27.996C808.603,932.436,818.809,951.702,846.031,947.842z
		"/>
	<path fill-rule="evenodd" clip-rule="evenodd" fill="#4D3633" d="M480.77,951.773c25.047-3.56,48.7,43.612,26.317,43.612
		c-36.639,0-8.443-15.85-22.656,1.915c-0.48,0.571-51.349,13.744-45.606-28.021C443.344,936.398,453.531,955.646,480.77,951.773z"/>
	<path fill-rule="evenodd" clip-rule="evenodd" fill="#EDEDEE" d="M654.429,716.842l113.99,10.375
		c0,88.278-60.612,85.509-1.849,228.002c23.535,57.069-66.247,71.371-66.247-58.718
		C700.323,791.862,654.429,754.853,654.429,716.842z"/>
	<path fill-rule="evenodd" clip-rule="evenodd" fill="#4D3633" d="M760.408,973.301c25.004-3.551,48.671,43.583,26.307,43.583
		c-36.654,0-8.464-15.828-22.677,1.923c-0.452,0.571-51.356,13.765-45.589-27.991C722.964,957.925,733.167,977.173,760.408,973.301z
		"/>
	<g>
		<path fill-rule="evenodd" clip-rule="evenodd" fill="#EDEDEE" d="M945.654,298.284c13.729-3.62,23.231-12.688,31.198-23.402
			c6.902-9.273,16.456-31.489,28.6-21.446c16.968,14.009,4.684,55.541-16.243,61.092c-12.349,3.281-24.265,8.5-34.451,0.657
			C949.957,311.495,946.309,305.905,945.654,298.284z"/>
		<path fill-rule="evenodd" clip-rule="evenodd" fill="#AA674C" d="M801.281,281.168c-5.948-1.335-35.72-3.874-39.685-44.858
			c-3.968-40.985-11.909-13.045-11.909,13.913c0,26.962,7.937,61.232,35.72,55.724C813.19,300.428,801.281,281.168,801.281,281.168z
			"/>
		<path fill-rule="evenodd" clip-rule="evenodd" fill="#AA674C" d="M928.825,236.348c5.95-2.81,35.925,2.519,39.89-39.444
			c3.97-41.97,11.907-15.99,11.907,10.968c0,26.959-8.138,47.955-35.92,49.319C916.916,258.557,928.825,236.348,928.825,236.348z"/>
		<path fill-rule="evenodd" clip-rule="evenodd" fill="#EDEDEE" d="M892.561,232.542c0,0-69.452-43.249-79.37,43.008
			c57.539,9.464,103.178-18.995,103.178-18.995L892.561,232.542z"/>
		<path fill-rule="evenodd" clip-rule="evenodd" fill="#EDEDEE" d="M1057.257,357.32c-83.344-9.901-74.409-34.232-111.124-67.123
			c-17.932-16.079-156.297,16.399-188.94,102.595c-12.072,31.878-19.333,55.781-0.56,98.175
			c33.642,76.005,81.983,95.593,156.267,66.198c39.026-15.453,88.026,17.162,138.399-17.131
			c11.015-7.489,51.544-11.47,33.832-32.919l-20.432-135.161L1057.257,357.32z"/>
		<g>
			<path fill-rule="evenodd" clip-rule="evenodd" fill="#FFFFFF" d="M911.092,243.482c27.52-7.981,55.406,8.884,62.295,37.643
				c6.893,28.766-9.81,58.553-37.326,66.531c-27.518,7.97-55.412-8.885-62.303-37.672
				C866.863,281.228,883.573,251.445,911.092,243.482z"/>
			<path fill-rule="evenodd" clip-rule="evenodd" fill="#0B040C" d="M915.115,281.902c15.769-1.603,30.016,11.848,31.817,30.056
				c1.793,18.194-9.533,34.254-25.302,35.843c-15.776,1.607-30.006-11.851-31.817-30.059
				C888.018,299.545,899.346,283.495,915.115,281.902z"/>
			<path fill-rule="evenodd" clip-rule="evenodd" fill="#FFFFFF" d="M903.443,300.612c0.051-4.207,3.033-7.465,6.686-7.289
				c3.64,0.158,6.557,3.679,6.511,7.874c-0.048,4.188-3.038,7.466-6.69,7.289C906.311,308.331,903.394,304.796,903.443,300.612z"/>
			<path fill-rule="evenodd" clip-rule="evenodd" fill="#EDEDEE" d="M973.059,313.953c7.851,58.065-90.489,77.135-109.139,14.322
				C881.626,333.699,939.276,340.455,973.059,313.953z"/>
		</g>
		<g>
			<path fill-rule="evenodd" clip-rule="evenodd" fill="#FFFFFF" d="M841.021,252.105c-30.568-1.007-58.424,23.998-62.219,55.855
				c-3.784,31.86,17.921,58.482,48.485,59.492c30.566,0.992,58.412-24.013,62.214-55.873
				C893.29,279.742,871.583,253.101,841.021,252.105z"/>
			<path fill-rule="evenodd" clip-rule="evenodd" fill="#0B040C" d="M841.528,293.266c-17.152,2.525-30.76,20.351-30.407,39.816
				c0.349,19.469,14.541,33.212,31.678,30.691c17.152-2.536,30.773-20.366,30.42-39.827
				C872.858,304.464,858.665,290.745,841.528,293.266z"/>
			<path fill-rule="evenodd" clip-rule="evenodd" fill="#EDEDEE" d="M888.102,324.681c12.99,54.993-86.058,93.52-110.287,36.344
				C796.039,362.299,856.589,358.281,888.102,324.681z"/>
		</g>
		<path fill-rule="evenodd" clip-rule="evenodd" fill="#FFFFFF" d="M856.42,309.677c-0.583-4.355-4.206-6.972-8.104-5.831
			c-3.892,1.137-6.587,5.601-6.003,9.952c0.581,4.371,4.209,6.984,8.1,5.848C854.305,318.508,857,314.041,856.42,309.677z"/>
		<path fill="#FFDAC8" d="M893.548,421.139c0,0-56.228,48.53-20.397,135.436c35.825,86.907,162.422,78.253,224.52,19.048
			c11.947,17.254,26.273-17.307,23.891-31.065c35.825-18.487,33.439-43.954,16.716-51.25c2.389-35.426-46.796-98.231-46.796-98.231
			s-4.555-90.632-71.435-28.487c-26.273-6.116-63.992,18.811-63.992,18.811S907.882,360.813,893.548,421.139z"/>
		<path fill="#38343B" d="M1073.511,389.527c0-12.028-8.612-20.708-19.232-19.391c-10.622,1.314-19.234,12.127-19.234,24.152
			c0,12.028,8.612,20.711,19.234,19.397C1064.899,412.367,1073.511,401.554,1073.511,389.527z"/>
		<path fill="#38343B" d="M964.985,432.513c0-18.328-10.662-31.86-23.812-30.232c-13.148,1.628-23.808,17.802-23.808,36.128
			c0,18.325,10.66,31.86,23.808,30.229C954.322,467.01,964.985,450.84,964.985,432.513z"/>
		<path fill="#38343B" d="M1121.562,544.558c0,0-97.052,23.678-155.092-18.906C972.427,537.354,1041.514,583.24,1121.562,544.558z"
			/>
		<g>
			<path fill-rule="evenodd" clip-rule="evenodd" fill="#EDEDEE" d="M785.603,328.88c-13.429,5.667-26.835,4.252-40.038,0.537
				c-11.406-3.225-33.103-15.284-36.688,0.49c-5.003,22.025,31.023,48.082,51.518,39.477c12.085-5.068,25.034-8.296,28.408-21.064
				C790.391,342.313,789.852,335.479,785.603,328.88z"/>
			<path fill-rule="evenodd" clip-rule="evenodd" fill="#B2B3B6" d="M768.477,343.375c-8.455,2.917-16.604,1.501-24.529-1.31
				c-6.857-2.437-19.644-10.718-22.487-1.208c-3.966,13.281,17.021,30.719,29.917,26.283c7.614-2.617,15.672-4.057,18.257-11.734
				C770.859,351.795,770.806,347.596,768.477,343.375z"/>
		</g>
	</g>
	<path fill-rule="evenodd" clip-rule="evenodd" fill="#EDEDEE" d="M227.273,486.309c0,0-161.374,35.61-153.887-112.67
		c6.616-131.044,51.624-117.808,51.624-117.808l1.012-11.798c0,0-72.32-32.545-75.937,130.178
		C46.47,536.935,158.567,522.47,227.273,518.854C295.979,515.238,227.273,486.309,227.273,486.309z"/>
	<path fill-rule="evenodd" clip-rule="evenodd" fill="#AA674C" d="M126.022,244.033c0,0-11.607-34.53,28.106-26.588
		c39.715,7.942,64.865,17.204,82.072-3.973c17.209-21.177,13.237-27.798,13.237-27.798s22.508,15.883-2.647,42.358
		c-25.152,26.475-34.42,45.003-67.511,42.358C146.186,267.746,132.952,262.448,126.022,244.033z"/>
	<path fill-rule="evenodd" clip-rule="evenodd" fill="#363337" d="M356.25,352.514c0,0-9.639,98.838,69.915,91.606
		c79.552-7.232,36.157-12.052,89.193-26.517c53.038-14.464,120.537-21.696,125.359-81.965
		C592.503,311.53,435.804,304.301,356.25,352.514z"/>
	<path fill-rule="evenodd" clip-rule="evenodd" fill="#363337" d="M305.626,528.494c0,29.028-40.985,53.034-7.232,72.321
		c33.752,19.289-28.93,84.379,81.964,57.861c16.906-4.05,77.142-36.164,79.554-55.449c2.412-19.284-118.125,26.518-101.25-16.876
		c16.877-43.393,55.446-89.194,21.696-103.658C346.611,468.229,305.626,514.03,305.626,528.494z"/>
	<path fill-rule="evenodd" clip-rule="evenodd" fill="#363337" d="M466.493,514.538c2.308-5.936,77.751-70.683,125.464-45.946
		c47.711,24.74,49.481,60.083,12.37,77.756c-37.108,17.671-35.343-15.901-42.412-28.275c-7.071-12.37-28.275,12.37-40.645,28.275
		C508.903,562.25,454.123,546.348,466.493,514.538z"/>
	<path fill-rule="evenodd" clip-rule="evenodd" fill="#B2B3B6" d="M375.539,764.75c0,0-67.501-40.987-81.966-67.507
		c36.161,81.97,48.214,183.218,48.214,183.218l21.696,84.371C380.358,967.247,317.681,808.143,375.539,764.75z"/>
	<path fill-rule="evenodd" clip-rule="evenodd" fill="#363337" d="M438.216,786.447c0,0,86.783-24.106,106.07-86.79
		c19.289-62.681,36.161-72.326,74.734-48.214c38.573,24.104,8.252,28.674,51.698,4.54c25.776-14.315,44.386-5.729,58.705,15.75
		c4.824,7.234,16.936,58.557-52.977,73.02c-69.913,14.463-62.248,3.116-62.248,15.173c0,12.053,16.873,33.749,16.873,33.749
		S505.717,834.663,438.216,786.447z"/>
	<path fill-rule="evenodd" clip-rule="evenodd" fill="#C2C4C6" d="M773.3,388.676c0,0-2.412,101.249,91.605,130.178
		c2.412,40.981,33.749,81.966,33.749,81.966l-21.696,40.984c0,0-4.824-84.378-50.624-113.305
		C780.532,499.569,761.247,427.248,773.3,388.676z"/>
	<path fill-rule="evenodd" clip-rule="evenodd" fill="#363337" d="M710.619,473.049c-14.465,21.696,14.467,38.576-9.641,62.68
		c-24.108,24.105,14.465,40.985,36.161,43.394c21.696,2.408,33.751-69.914,21.696-77.145
		C746.78,494.746,710.619,473.049,710.619,473.049z"/>
</g>
</svg>
